<svg xmlns="http://www.w3.org/2000/svg" xmlns:xlink="http://www.w3.org/1999/xlink" width="500" zoomAndPan="magnify" viewBox="0 0 375 374.999991" height="500" preserveAspectRatio="xMidYMid meet" version="1.0"><defs><clipPath id="3133a558ea"><path d="M 207 134 L 345.65625 134 L 345.65625 254 L 207 254 Z M 207 134 " clip-rule="nonzero"/></clipPath><clipPath id="104f2aca47"><path d="M 253 213 L 320 213 L 320 279.582031 L 253 279.582031 Z M 253 213 " clip-rule="nonzero"/></clipPath><clipPath id="16c430efad"><path d="M 108 213 L 175 213 L 175 279.582031 L 108 279.582031 Z M 108 213 " clip-rule="nonzero"/></clipPath><clipPath id="f1915912a0"><path d="M 29.15625 200 L 122 200 L 122 214 L 29.15625 214 Z M 29.15625 200 " clip-rule="nonzero"/></clipPath><clipPath id="3b955e8a80"><path d="M 81 95.082031 L 254 95.082031 L 254 254 L 81 254 Z M 81 95.082031 " clip-rule="nonzero"/></clipPath></defs><path fill="#000000" d="M 114.875 253.191406 L 88.5 253.191406 C 84.859375 253.191406 81.90625 250.242188 81.90625 246.605469 C 81.90625 242.972656 84.859375 240.019531 88.5 240.019531 L 114.875 240.019531 C 118.511719 240.019531 121.46875 242.972656 121.46875 246.605469 C 121.46875 250.242188 118.511719 253.191406 114.875 253.191406 Z M 114.875 253.191406 " fill-opacity="1" fill-rule="nonzero"/><g clip-path="url(#3133a558ea)"><path fill="#000000" d="M 329.171875 253.191406 L 312.6875 253.191406 C 309.046875 253.191406 306.09375 250.242188 306.09375 246.605469 C 306.09375 242.972656 309.046875 240.019531 312.6875 240.019531 L 323.695312 240.019531 L 332.585938 192.707031 C 332.46875 168.496094 311.761719 147.816406 286.3125 147.816406 L 243.015625 147.816406 L 222.035156 240.019531 L 259.9375 240.019531 C 263.574219 240.019531 266.53125 242.972656 266.53125 246.605469 C 266.53125 250.242188 263.574219 253.191406 259.9375 253.191406 L 213.78125 253.191406 C 211.773438 253.191406 209.875 252.285156 208.625 250.71875 C 207.371094 249.164062 206.894531 247.109375 207.34375 245.160156 L 231.320312 139.785156 C 232.003906 136.765625 234.667969 134.644531 237.753906 134.644531 L 286.3125 134.644531 C 319.027344 134.644531 345.65625 161.238281 345.65625 193.917969 L 335.644531 247.820312 C 335.066406 250.941406 332.347656 253.191406 329.171875 253.191406 Z M 329.171875 253.191406 " fill-opacity="1" fill-rule="nonzero"/></g><g clip-path="url(#104f2aca47)"><path fill="#000000" d="M 286.3125 279.535156 C 268.136719 279.535156 253.34375 264.769531 253.34375 246.605469 C 253.34375 228.441406 268.136719 213.675781 286.3125 213.675781 C 304.484375 213.675781 319.28125 228.441406 319.28125 246.605469 C 319.28125 264.769531 304.484375 279.535156 286.3125 279.535156 Z M 286.3125 226.847656 C 275.40625 226.847656 266.53125 235.714844 266.53125 246.605469 C 266.53125 257.5 275.40625 266.363281 286.3125 266.363281 C 297.214844 266.363281 306.09375 257.5 306.09375 246.605469 C 306.09375 235.714844 297.214844 226.847656 286.3125 226.847656 Z M 286.3125 226.847656 " fill-opacity="1" fill-rule="nonzero"/></g><g clip-path="url(#16c430efad)"><path fill="#000000" d="M 141.25 279.535156 C 123.074219 279.535156 108.28125 264.769531 108.28125 246.605469 C 108.28125 228.441406 123.074219 213.675781 141.25 213.675781 C 159.421875 213.675781 174.21875 228.441406 174.21875 246.605469 C 174.21875 264.769531 159.421875 279.535156 141.25 279.535156 Z M 141.25 226.847656 C 130.34375 226.847656 121.46875 235.714844 121.46875 246.605469 C 121.46875 257.5 130.34375 266.363281 141.25 266.363281 C 152.152344 266.363281 161.03125 257.5 161.03125 246.605469 C 161.03125 235.714844 152.152344 226.847656 141.25 226.847656 Z M 141.25 226.847656 " fill-opacity="1" fill-rule="nonzero"/></g><path fill="#000000" d="M 114.875 134.644531 L 62.125 134.644531 C 58.484375 134.644531 55.53125 131.695312 55.53125 128.058594 C 55.53125 124.425781 58.484375 121.472656 62.125 121.472656 L 114.875 121.472656 C 118.511719 121.472656 121.46875 124.425781 121.46875 128.058594 C 121.46875 131.695312 118.511719 134.644531 114.875 134.644531 Z M 114.875 134.644531 " fill-opacity="1" fill-rule="nonzero"/><path fill="#000000" d="M 114.875 174.160156 L 48.9375 174.160156 C 45.296875 174.160156 42.34375 171.210938 42.34375 167.574219 C 42.34375 163.941406 45.296875 160.988281 48.9375 160.988281 L 114.875 160.988281 C 118.511719 160.988281 121.46875 163.941406 121.46875 167.574219 C 121.46875 171.210938 118.511719 174.160156 114.875 174.160156 Z M 114.875 174.160156 " fill-opacity="1" fill-rule="nonzero"/><g clip-path="url(#f1915912a0)"><path fill="#000000" d="M 114.875 213.675781 L 35.75 213.675781 C 32.109375 213.675781 29.15625 210.726562 29.15625 207.089844 C 29.15625 203.457031 32.109375 200.503906 35.75 200.503906 L 114.875 200.503906 C 118.511719 200.503906 121.46875 203.457031 121.46875 207.089844 C 121.46875 210.726562 118.511719 213.675781 114.875 213.675781 Z M 114.875 213.675781 " fill-opacity="1" fill-rule="nonzero"/></g><g clip-path="url(#3b955e8a80)"><path fill="#000000" d="M 213.78125 253.191406 L 167.625 253.191406 C 163.984375 253.191406 161.03125 250.242188 161.03125 246.605469 C 161.03125 242.972656 163.984375 240.019531 167.625 240.019531 L 208.519531 240.019531 L 238.480469 108.300781 L 88.5 108.300781 C 84.859375 108.300781 81.90625 105.351562 81.90625 101.714844 C 81.90625 98.082031 84.859375 95.128906 88.5 95.128906 L 246.75 95.128906 C 248.753906 95.128906 250.652344 96.039062 251.90625 97.605469 C 253.15625 99.160156 253.632812 101.214844 253.183594 103.164062 L 220.214844 248.054688 C 219.527344 251.074219 216.851562 253.191406 213.78125 253.191406 Z M 213.78125 253.191406 " fill-opacity="1" fill-rule="nonzero"/></g></svg>