<svg id="Layer_1" data-name="Layer 1" xmlns="http://www.w3.org/2000/svg" viewBox="0 0 1115.7 181.6">
  <g>
    <path d="M58.9,181.6,13.8,128.3a25.5,25.5,0,0,1-1.9-2.4,58.9,58.9,0,0,1,47-94.4V47.7A42.8,42.8,0,0,0,16.2,90.5a42.2,42.2,0,0,0,8.6,25.6l1.4,1.8,32.7,38.6,32.8-38.6,1.4-1.8.2-.3a42.9,42.9,0,0,0,8.4-25.3h16.2A58.4,58.4,0,0,1,106,125.8l-.3.5-1.5,1.9h-.1Z" fill="#113559"/>
    <g>
      <path d="M166.6,71.2h19.1l20.2,56.7L226,71.2h18.7l-28.5,72.7H195.1Z" fill="#113559"/>
      <path d="M254.1,50.2a11.4,11.4,0,0,1,11.7-11.8c6.7,0,11.6,5,11.6,11.8a11.2,11.2,0,0,1-11.6,11.6C259,61.8,254.1,57,254.1,50.2Zm2.8,21h17.5v72.7H256.9Z" fill="#113559"/>
      <path d="M291.4,116V45.5h17.5V71.2h37.5V87.1H308.9V116c0,9.7,5,13.5,12.2,13.5s12.2-3.7,12.2-13.5v-1.9h17.5V116c0,20.1-12.1,29.9-29.7,29.9S291.4,136.1,291.4,116Z" fill="#113559"/>
      <path d="M359.1,108.3c0-23.1,16.1-39,39.2-39S437,84.8,437,108.2v35.7H421V129.7c-4.4,10.7-14.3,16.2-25.8,16.2C377.6,145.9,359.1,133.2,359.1,108.3Zm60.4-.7c0-12.8-8.5-21.9-21.3-21.9s-21.5,9.1-21.5,21.9,8.7,21.9,21.5,21.9S419.5,120.4,419.5,107.6Z" fill="#113559"/>
      <path d="M451.5,102.4c0-22.8,13.2-33.1,30.4-33.1,10.9,0,19.9,4.6,25.2,13.1,5.1-8.5,14.1-13.1,25.1-13.1,17.3,0,30.5,10.3,30.5,33.1v41.5H545.2V102.4c0-11.9-6.2-16.7-14.7-16.7s-14.6,5-14.6,16.7v41.5H498.4V102.4c0-11.7-6.3-16.7-14.7-16.7S469,90.5,469,102.4v41.5H451.5Z" fill="#113559"/>
      <path d="M576.8,50.2c0-6.8,4.9-11.8,11.6-11.8a11.4,11.4,0,0,1,11.7,11.8c0,6.8-4.9,11.6-11.7,11.6A11.2,11.2,0,0,1,576.8,50.2Zm2.8,21h17.5v72.7H579.6Z" fill="#113559"/>
      <path d="M614,106.1c0-24.3,14.5-36.8,36-36.8s35.9,12.4,35.9,36.8v37.8H668.3V106.1c0-13.8-7.3-20.4-18.3-20.4s-18.4,6.6-18.4,20.4v37.8H614Z" fill="#113559"/>
      <path d="M739.4,108.2c0-23.6,15.9-38.9,38.7-38.9s39.3,15.9,39.3,39c0,24.9-18.5,37.6-36.2,37.6-10.4,0-19.1-4.5-24.3-12.6V175H739.4Zm60.3-.6c0-12.8-8.6-21.9-21.4-21.9s-21.4,9.1-21.4,21.9,8.6,21.9,21.4,21.9S799.7,120.4,799.7,107.6Z" fill="#113559"/>
      <path d="M831.4,39.5h17.5V143.9H831.4Z" fill="#113559"/>
      <path d="M862.9,108.3c0-23.1,16.2-39,39.3-39s38.7,15.5,38.7,38.9v35.7H924.8V129.7c-4.4,10.7-14.3,16.2-25.7,16.2C881.4,145.9,862.9,133.2,862.9,108.3Zm60.4-.7c0-12.8-8.5-21.9-21.3-21.9s-21.5,9.1-21.5,21.9,8.7,21.9,21.5,21.9S923.3,120.4,923.3,107.6Z" fill="#113559"/>
      <path d="M952.3,107.6c0-22.1,16.2-38.3,39.2-38.3,19.7,0,34.1,12,37.6,29.2h-17.6c-3.1-7.8-10.5-12.8-20-12.8-12.8,0-21.5,9.1-21.5,21.9s8.7,21.9,21.5,21.9c9.5,0,16.9-5,20-12.8h17.6c-3.5,17.2-17.9,29.2-37.6,29.2C968.5,145.9,952.3,129.7,952.3,107.6Z" fill="#113559"/>
      <path d="M1037.7,107.6c0-22.1,16.2-38.3,39.1-38.3s38.9,16.2,38.9,38.3v6.2h-59.6c2.3,10.6,10.4,16.2,20.7,16.2,7.8,0,13.5-2.2,17.2-7h18.7c-5.4,13.9-18.7,22.9-35.9,22.9C1053.9,145.9,1037.7,129.7,1037.7,107.6Zm59.4-7.8c-2.8-9.7-10.7-14.6-20.3-14.6s-17.5,5-20.3,14.6Z" fill="#113559"/>
    </g>
    <rect x="70.2" y="31.5" width="79.2" height="16.19" fill="#306cf2"/>
    <rect x="101.7" width="16.2" height="79.21" fill="#306cf2"/>
  </g>
</svg>
