<?xml version="1.0" standalone="no"?>
<!DOCTYPE svg PUBLIC "-//W3C//DTD SVG 20010904//EN"
 "http://www.w3.org/TR/2001/REC-SVG-20010904/DTD/svg10.dtd">
<svg version="1.0" xmlns="http://www.w3.org/2000/svg"
 width="512.000000pt" height="491.000000pt" viewBox="0 0 512.000000 491.000000"
 preserveAspectRatio="xMidYMid meet">

<g transform="translate(0.000000,491.000000) scale(0.100000,-0.100000)"
fill="#306cf2" stroke="none">
<path d="M2488 4896 c-51 -14 -64 -22 -120 -75 -33 -30 -75 -122 -339 -741
l-302 -707 -748 -67 c-412 -37 -764 -72 -782 -77 -90 -25 -167 -109 -187 -204
-20 -95 10 -182 88 -257 26 -25 285 -253 575 -508 291 -254 531 -468 533 -474
3 -7 -70 -340 -161 -740 -99 -437 -165 -749 -165 -779 0 -101 85 -217 178
-245 50 -15 129 -15 173 0 19 6 320 182 669 391 349 209 642 382 652 384 9 3
287 -157 660 -379 353 -212 658 -390 677 -396 19 -7 59 -12 90 -12 142 0 260
119 261 261 0 24 -75 376 -167 781 -92 406 -165 739 -162 741 120 97 1147
1010 1164 1035 95 144 16 353 -152 401 -16 5 -367 39 -780 77 l-751 68 -298
700 c-323 756 -328 766 -419 807 -56 25 -131 31 -187 15z m178 -121 c19 -14
40 -38 48 -53 7 -15 147 -342 311 -727 164 -385 300 -702 302 -705 2 -2 356
-36 786 -75 818 -75 815 -74 864 -127 46 -49 56 -136 24 -197 -11 -20 -253
-240 -607 -551 -324 -284 -588 -521 -588 -526 1 -5 79 -352 174 -771 129 -569
171 -770 166 -796 -10 -52 -46 -99 -96 -125 -88 -46 -63 -58 -812 389 l-677
404 0 1949 -1 1949 36 -6 c20 -3 51 -18 70 -32z"/>
</g>
</svg>
