<svg id="Layer_1" data-name="Layer 1" xmlns="http://www.w3.org/2000/svg" viewBox="0 0 300 300">
  <path d="M150,292.4C71.5,292.4,7.6,228.5,7.6,150S71.5,7.6,150,7.6,292.4,71.5,292.4,150,228.5,292.4,150,292.4Z" fill="#fff"/>
  <g>
    <path d="M148.9,198.1l-24-28.2-1-1.3a31.2,31.2,0,0,1,24.9-50v8.6a22.7,22.7,0,0,0-22.7,22.6,22.3,22.3,0,0,0,4.6,13.6l.7,1,17.4,20.4,17.3-20.4c.2-.2.7-1,.8-1v-.2a22.9,22.9,0,0,0,4.4-13.4h8.6a31.7,31.7,0,0,1-6.3,18.8l-.2.2c-.6.8-.7,1-.8,1h0Z" fill="#113559"/>
    <rect x="154.8" y="118.6" width="42" height="8.58" fill="#306cf2"/>
    <rect x="171.5" y="101.9" width="8.6" height="41.97" fill="#306cf2"/>
  </g>
  <g>
    <path id="Icon_feather-heart" data-name="Icon feather-heart" d="M59.9,170.3a7.4,7.4,0,0,0-10.6,0h0l-1.5,1.4-1.4-1.4a7.6,7.6,0,0,0-12.2,2,7.4,7.4,0,0,0,1.5,8.6h0l1.5,1.5,10.1,10.1a.8.8,0,0,0,1.1,0l10.1-10.1,1.4-1.5a7.4,7.4,0,0,0,0-10.6Z" fill="#306cf2"/>
    <path id="Icon_feather-heart-2" data-name="Icon feather-heart" d="M264.4,170.3a7.5,7.5,0,0,0-10.7,0h0l-1.4,1.4-1.5-1.4a7.5,7.5,0,0,0-12.1,2,7.3,7.3,0,0,0,1.4,8.6h0l1.5,1.5,10.1,10.1a.8.8,0,0,0,1.1,0l10.1-10.1,1.5-1.5a7.5,7.5,0,0,0,0-10.6Z" fill="#306cf2"/>
  </g>
  <path d="M150,285.7C75.2,285.7,14.3,224.8,14.3,150S75.2,14.3,150,14.3,285.7,75.2,285.7,150,224.8,285.7,150,285.7Zm0-259.5A123.8,123.8,0,1,0,273.8,150,123.9,123.9,0,0,0,150,26.2Z" fill="#306cf2"/>
  <g>
    <path d="M49.6,156.7v-2.9c1.3-.1,2.1-1.2,2.1-3.3s-1-3.2-2.2-3.2-1.5,1.6-1.7,3.4-.7,5.7-4.1,5.8-4.9-2.2-5-5.8,1.9-5.7,4.5-5.8v2.8c-1.1.1-2,1.2-1.9,3s.9,2.9,2.1,2.9,1.5-1.6,1.7-3.4.7-5.7,4.1-5.8,5,2.3,5.1,6.1S52.3,156.5,49.6,156.7Z"/>
    <path d="M46.5,142.2c-4.6-.7-7.3-4.5-6.6-9.2a7.4,7.4,0,0,1,9-6.5l7.2,1.1-.4,2.6-3.2-.5a5.9,5.9,0,0,1,2.7,6.2A7.4,7.4,0,0,1,46.5,142.2Zm1.9-13a5,5,0,0,0-5.9,4.3,4.8,4.8,0,0,0,4.3,5.8,4.9,4.9,0,0,0,5.9-4.2A5,5,0,0,0,48.4,129.2Z"/>
    <path d="M51.4,123.8l-13.7-4.5.9-2.7,5,1.6,2.5-7.7,2.5.8L46,119l6.3,2.1c2.2.7,3.6-.1,4.2-1.9s0-3.3-2.3-4h-.3l.9-2.7h.3c3.8,1.3,5,4.2,3.9,7.5S55.2,125,51.4,123.8Z"/>
    <path d="M43.8,104.8a2,2,0,0,1-1-2.6,1.9,1.9,0,0,1,2.6-1,2,2,0,0,1,1.1,2.6A1.9,1.9,0,0,1,43.8,104.8Zm4.2,1.3,1.2-2.6,13.5,6-1.2,2.6Z"/>
    <path d="M59.9,105.1l1.4-2.4c1.1.5,2.4,0,3.5-1.8s.8-3.3-.2-3.9-2.2.6-3.3,2-3.6,4.6-6.5,2.9-3.1-4.4-1.3-7.5,4.6-4,6.8-2.7l-1.4,2.4c-1-.5-2.3,0-3.2,1.6s-.7,3,.3,3.6,2.2-.6,3.3-2.1,3.5-4.5,6.5-2.8,3,4.5,1.2,7.8S62.2,106.4,59.9,105.1Z"/>
    <path d="M59,85.4c-3.4-2.6-3.4-5.9-1.1-8.9s5.6-3.7,9-1.1l-1.7,2.3c-2.1-1.7-3.9-1.3-5.2.4s-1.3,3.5.8,5.1l1.9,1.5,5-6.3L69.8,80l-5,6.4,8,6.2L71,94.9Z"/>
    <path d="M73.7,79.7a7.6,7.6,0,0,1,.5-11.3,7.5,7.5,0,0,1,11.1.5l5,5.3L88.4,76l-2.2-2.4a5.9,5.9,0,0,1-1.8,6.6A7.3,7.3,0,0,1,73.7,79.7Zm9.5-9a5.1,5.1,0,1,0-.3,7.3A4.9,4.9,0,0,0,83.2,70.7Z"/>
    <path d="M87.4,67.1a7.7,7.7,0,0,1,2.5-10.9c3.3-2.1,7.1-1.8,9.6.7L97,58.5a4.9,4.9,0,0,0-5.7-.1,5.2,5.2,0,0,0,5.6,8.7,4.7,4.7,0,0,0,2.3-5.2l2.5-1.6a7.5,7.5,0,0,1-3.3,9A7.8,7.8,0,0,1,87.4,67.1Z"/>
    <path d="M103.8,59.1,98,45.9l2.6-1.2,2.1,4.8,7.4-3.3,1.1,2.4-7.5,3.3,2.7,6c1,2.2,2.5,2.6,4.2,1.9s2.4-2.2,1.5-4.4l-.2-.3,2.6-1.1.2.3c1.6,3.7.2,6.4-3,7.9S105.4,62.8,103.8,59.1Z"/>
    <path d="M112.8,40.8a2,2,0,0,1,3.8-1.3,2.1,2.1,0,0,1-1.3,2.6A2.1,2.1,0,0,1,112.8,40.8Zm1.9,3.9,2.7-.9,4.5,14.1-2.7.9Z"/>
    <path d="M122.6,49.7a8,8,0,0,1,15.7-3,8,8,0,0,1-15.7,3Zm12.9-2.4a5.1,5.1,0,1,0-10.1,1.9,5.1,5.1,0,0,0,10.1-1.9Z"/>
    <path d="M141.1,46.2c-.1-4.9,2.8-7.5,7.1-7.6s7.4,2.4,7.5,7.4v7.7h-2.9V46c0-3.2-1.8-4.8-4.5-4.8s-4.5,1.8-4.4,5v7.7h-2.8Z"/>
    <path d="M165,56.4l2.8.7c.2,1.8,1.8,3,3.9,3.5s5.2-.2,6.1-4l.4-1.6a6,6,0,0,1-6.1,1.6,7.2,7.2,0,0,1-5.5-9.2,7.6,7.6,0,0,1,9.6-5.7c4.6,1.1,6.9,4.9,5.8,9.6l-1.4,5.9c-1.4,5.5-5.3,6.8-9.5,5.8S165.1,60,165,56.4Zm14.3-5.9a5.1,5.1,0,1,0-9.9-2.4,5.1,5.1,0,0,0,9.9,2.4Z"/>
    <path d="M185.1,52.6l3.2-7.1,2.6,1.2-3.2,7c-1.3,3-.3,5.2,2.1,6.3s4.8.3,6.1-2.6l3.1-7.1,2.6,1.1-3.1,7.1c-2,4.5-5.7,5.6-9.7,3.9S183.1,57.1,185.1,52.6Z"/>
    <path d="M201,59.6a7.8,7.8,0,0,1,11.1-2.1,7.5,7.5,0,0,1,2.1,11l-4.1,6L208,73.1l1.8-2.7a6,6,0,0,1-6.8-.2A7.5,7.5,0,0,1,201,59.6Zm10.9,7.2a5.1,5.1,0,1,0-7.1,1.4A4.8,4.8,0,0,0,211.9,66.8Z"/>
    <path d="M217.7,69.6c3-3.2,6.3-2.9,9.1-.3s3.1,5.9.1,9.1h-.1l-2-1.9v-.2c1.9-1.9,1.6-3.7,0-5.2s-3.3-1.6-5.2.4l-5.9,6.3L211.7,76Z"/>
    <path d="M227.2,80.7c3.7-2.9,8.3-2.2,11.2,1.5a7.6,7.6,0,0,1-1.5,11.1l-5.8,4.4-1.6-2.1,2.6-1.9a6.2,6.2,0,0,1-6.4-2.4A7.3,7.3,0,0,1,227.2,80.7ZM235.3,91a5,5,0,0,0,1-7.2,4.9,4.9,0,0,0-7.2-.9,4.8,4.8,0,0,0-1,7.1A4.9,4.9,0,0,0,235.3,91Z"/>
    <path d="M239,95.9c4.4-2.2,8-.8,10,3.1s1.2,7.6-3.2,9.9l-6.9,3.6-1.3-2.6,6.8-3.5c2.9-1.5,3.5-3.8,2.3-6.2s-3.5-3.2-6.4-1.7l-6.8,3.5-1.3-2.5Z"/>
    <path d="M244.9,112.8l13.8-4.6.9,2.7-5,1.7,2.5,7.7-2.4.8-2.6-7.7-6.3,2.1c-2.2.7-2.8,2.2-2.2,3.9s1.9,2.7,4.2,1.9h.3l.9,2.7h-.3c-3.8,1.3-6.5-.4-7.6-3.7S241.1,114,244.9,112.8Z"/>
    <path d="M251,125.5a7.6,7.6,0,0,1,9,6.6c.7,4.7-2,8.4-6.4,9.1l-1.1.2-2-12.7a5.2,5.2,0,0,0-.8,9.3l.5,3.1c-2.9-.7-5-3.1-5.6-6.5S246.6,126.2,251,125.5Zm3.6,12.5a5.1,5.1,0,0,0-1.6-9.7Z"/>
    <path d="M253.7,143.4a8,8,0,0,1-.2,15.9h-1.1l.2-12.8a4.6,4.6,0,0,0-4.1,4.9,4.3,4.3,0,0,0,1.8,4.1v3.2a7.7,7.7,0,0,1-4.4-7.4A7.6,7.6,0,0,1,253.7,143.4Zm1.3,12.9a4.9,4.9,0,0,0,3.8-4.9,4.8,4.8,0,0,0-3.6-4.9Z"/>
  </g>
  <g>
    <path d="M127.1,215.9a3.4,3.4,0,0,1-.9,2.4,4.8,4.8,0,0,1-2.4,1.4h0a5.5,5.5,0,0,1,2.8,1.1,3.2,3.2,0,0,1,.9,2.4,4,4,0,0,1-1.6,3.4,7,7,0,0,1-4.4,1.2,10.2,10.2,0,0,1-4.4-.9v-2.6l1.9.7a7.5,7.5,0,0,0,2.1.2,3.6,3.6,0,0,0,2.3-.5,1.9,1.9,0,0,0,.8-1.7,1.6,1.6,0,0,0-.9-1.5,6.4,6.4,0,0,0-2.7-.4h-1.2v-2.5h1.2a5.1,5.1,0,0,0,2.5-.4,1.5,1.5,0,0,0,.8-1.6c0-1.1-.7-1.7-2.1-1.7l-1.5.3a5.1,5.1,0,0,0-1.7.8l-1.5-2.2a8.1,8.1,0,0,1,4.9-1.5,6.5,6.5,0,0,1,3.7,1A3,3,0,0,1,127.1,215.9Z" fill="#306cf2"/>
    <path d="M139.6,220.1a11.1,11.1,0,0,1-1.3,5.8,4.7,4.7,0,0,1-4,1.9,4.5,4.5,0,0,1-3.9-2,10,10,0,0,1-1.3-5.7c0-2.7.4-4.6,1.3-5.9a4.4,4.4,0,0,1,3.9-1.9,4.5,4.5,0,0,1,3.9,2A10.1,10.1,0,0,1,139.6,220.1Zm-7.4,0a11.8,11.8,0,0,0,.5,3.9,1.6,1.6,0,0,0,1.6,1.2,1.7,1.7,0,0,0,1.6-1.2,11.8,11.8,0,0,0,.5-3.9,12.1,12.1,0,0,0-.5-4,1.7,1.7,0,0,0-3.2,0A12.1,12.1,0,0,0,132.2,220.1Z" fill="#306cf2"/>
    <path d="M151,227.8a3.7,3.7,0,0,1-3.1-1.6,7.2,7.2,0,0,1-1.2-4.4,7.4,7.4,0,0,1,1.2-4.4,3.8,3.8,0,0,1,3.2-1.5,3.5,3.5,0,0,1,3.3,1.7h.1c-.1-.9-.2-1.7-.2-2.3v-3.7h3.1v16H155l-.6-1.5h-.1A3.7,3.7,0,0,1,151,227.8Zm1.1-2.5a2.5,2.5,0,0,0,1.8-.7,3.8,3.8,0,0,0,.6-2.4v-.3a4.7,4.7,0,0,0-.6-2.7,2.2,2.2,0,0,0-1.8-.8,2,2,0,0,0-1.7.9,6,6,0,0,0-.5,2.6,4.2,4.2,0,0,0,.6,2.5A1.7,1.7,0,0,0,152.1,225.3Z" fill="#306cf2"/>
    <path d="M168,227.6l-.6-1.6h-.1a5,5,0,0,1-1.6,1.4,6.7,6.7,0,0,1-2.2.4,3.6,3.6,0,0,1-2.6-1,3.3,3.3,0,0,1-1-2.7,3.2,3.2,0,0,1,1.3-2.7,7.7,7.7,0,0,1,3.9-.9H167v-.5a1.5,1.5,0,0,0-1.7-1.7,7.5,7.5,0,0,0-3.3.8l-1-2.1a9.2,9.2,0,0,1,4.4-1,5.2,5.2,0,0,1,3.5,1,3.5,3.5,0,0,1,1.2,3v7.7Zm-1-5.4h-1.2a3.4,3.4,0,0,0-2,.5,1.6,1.6,0,0,0-.7,1.3c0,.9.5,1.4,1.6,1.4a2.1,2.1,0,0,0,1.7-.7,2.1,2.1,0,0,0,.6-1.6Z" fill="#306cf2"/>
    <path d="M171.7,216.1h3.5l2.1,6.4a11.8,11.8,0,0,1,.4,2h.1a7.1,7.1,0,0,1,.4-2l2.1-6.4h3.4L178.8,229a5.5,5.5,0,0,1-1.9,2.7,4.8,4.8,0,0,1-2.9.9l-1.6-.2v-2.5l1.3.2a2.4,2.4,0,0,0,1.4-.5,3.7,3.7,0,0,0,1-1.6l.2-.5Z" fill="#306cf2"/>
    <path d="M106.9,246.6v-7.4a3,3,0,0,0-.6-2,2.4,2.4,0,0,0-1.8-.6,2.9,2.9,0,0,0-2.3.9,4.3,4.3,0,0,0-.8,2.8v6.3H99.7v-7.4a3,3,0,0,0-.6-2,2.2,2.2,0,0,0-1.8-.6,2.9,2.9,0,0,0-2.3.9,5.4,5.4,0,0,0-.7,3.2v5.9H92.6V235.3h1.3l.3,1.6h.1a2.9,2.9,0,0,1,1.4-1.3,3.8,3.8,0,0,1,1.9-.5c1.8,0,2.9.6,3.5,1.9h.1a3.8,3.8,0,0,1,1.4-1.4,5.1,5.1,0,0,1,2.2-.5,3.4,3.4,0,0,1,2.8,1,4,4,0,0,1,1,3.1v7.4Z"/>
    <path d="M121.8,240.9a6.2,6.2,0,0,1-1.4,4.3,5,5,0,0,1-3.8,1.6,6,6,0,0,1-2.7-.7,4.6,4.6,0,0,1-1.8-2.1,7.5,7.5,0,0,1-.6-3.1,6.5,6.5,0,0,1,1.3-4.3,5.1,5.1,0,0,1,3.9-1.5,4.6,4.6,0,0,1,3.7,1.6A6.1,6.1,0,0,1,121.8,240.9Zm-8.6,0a5,5,0,0,0,.9,3.3,2.8,2.8,0,0,0,2.5,1.1,3,3,0,0,0,2.6-1.1,5.7,5.7,0,0,0,.8-3.3,5.6,5.6,0,0,0-.8-3.2,3,3,0,0,0-2.6-1.1,2.7,2.7,0,0,0-2.5,1.1A4.9,4.9,0,0,0,113.2,240.9Z"/>
    <path d="M132.5,246.6v-7.3a2.8,2.8,0,0,0-.7-2.1,2.5,2.5,0,0,0-1.9-.6,3.3,3.3,0,0,0-2.6.9,5.1,5.1,0,0,0-.8,3.2v5.9h-1.7V235.3h1.4l.2,1.6h.1a3.7,3.7,0,0,1,1.5-1.3,4.6,4.6,0,0,1,2.1-.5,3.9,3.9,0,0,1,3,1,4,4,0,0,1,1.1,3.1v7.4Z"/>
    <path d="M142.4,246.8a4.8,4.8,0,0,1-3.9-1.6A5.7,5.7,0,0,1,137,241a6.5,6.5,0,0,1,1.4-4.3,4.4,4.4,0,0,1,3.6-1.6,4.2,4.2,0,0,1,3.3,1.4,5.3,5.3,0,0,1,1.2,3.7v1h-7.7a4.1,4.1,0,0,0,1,3,3.4,3.4,0,0,0,2.7,1.1,9.4,9.4,0,0,0,3.6-.8V246l-1.7.6Zm-.4-10.3a2.7,2.7,0,0,0-2.2.9,4.4,4.4,0,0,0-1,2.5h5.9a3.7,3.7,0,0,0-.7-2.5A2.5,2.5,0,0,0,142,236.5Z"/>
    <path d="M147.7,235.3h1.8l2.4,6.4a31.1,31.1,0,0,1,1.1,3.2h0a18.4,18.4,0,0,1,.6-1.8l2.8-7.8h1.8l-4.8,12.8a6.6,6.6,0,0,1-1.7,2.7,3.6,3.6,0,0,1-2.4.8l-1.5-.2v-1.3h1.3a2.7,2.7,0,0,0,2.5-2l.6-1.6Z"/>
    <path d="M170.7,235.1a4.4,4.4,0,0,1,3.5,1.5,7.1,7.1,0,0,1,1.2,4.3,6.1,6.1,0,0,1-1.3,4.3,4.1,4.1,0,0,1-3.4,1.6,6.5,6.5,0,0,1-2-.4,3.7,3.7,0,0,1-1.5-1.3h-.1l-.4,1.5h-1.2v-16h1.7v3.9a16.9,16.9,0,0,1-.1,2.3h.1A4.1,4.1,0,0,1,170.7,235.1Zm-.2,1.5a2.8,2.8,0,0,0-2.5,1c-.6.6-.8,1.7-.8,3.3a5.2,5.2,0,0,0,.8,3.4,2.8,2.8,0,0,0,2.5,1,2.4,2.4,0,0,0,2.3-1.1,5.4,5.4,0,0,0,.8-3.3,5.2,5.2,0,0,0-.8-3.3A2.6,2.6,0,0,0,170.5,236.6Z"/>
    <path d="M185.3,246.6l-.4-1.6h-.1a5,5,0,0,1-1.6,1.4,6.5,6.5,0,0,1-2.1.4,3.6,3.6,0,0,1-2.6-.9,3,3,0,0,1-1-2.5c0-2.2,1.8-3.4,5.5-3.5h1.9v-.7a2.5,2.5,0,0,0-.6-1.9,2.1,2.1,0,0,0-1.8-.7,7.1,7.1,0,0,0-3.2.9l-.5-1.3a7.5,7.5,0,0,1,1.8-.7,6.9,6.9,0,0,1,2-.3,4.5,4.5,0,0,1,3,.9,4,4,0,0,1,.9,2.9v7.7Zm-3.9-1.2a3.1,3.1,0,0,0,3.4-3.4v-1h-1.7a6.6,6.6,0,0,0-2.9.6,2,2,0,0,0-.9,1.8,1.7,1.7,0,0,0,.6,1.4A2.1,2.1,0,0,0,181.4,245.4Z"/>
    <path d="M194.5,246.8a4.9,4.9,0,0,1-3.8-1.5,6.9,6.9,0,0,1-1.3-4.3,6.6,6.6,0,0,1,1.4-4.4,4.9,4.9,0,0,1,3.8-1.5l1.7.2,1.2.4-.5,1.4-1.2-.3-1.2-.2c-2.3,0-3.4,1.5-3.4,4.4a5.1,5.1,0,0,0,.8,3.2,3.1,3.1,0,0,0,2.5,1.1,7.9,7.9,0,0,0,2.9-.6v1.5A6.2,6.2,0,0,1,194.5,246.8Z"/>
    <path d="M201.7,240.8l1.4-1.6,3.6-3.9h2l-4.5,4.8,4.8,6.5h-2l-4-5.4-1.3,1.1v4.3H200v-16h1.7v8.5a13.1,13.1,0,0,1-.1,1.7Z"/>
  </g>
</svg>
