<svg id="Layer_1" data-name="Layer 1" xmlns="http://www.w3.org/2000/svg" viewBox="0 0 50 50">
  <path d="M27.6,47.6l-.2-2a21.1,21.1,0,0,0,8.5-3L37,44.3A24,24,0,0,1,27.6,47.6Z" fill="#113559"/>
  <path d="M22.2,47.5A22.1,22.1,0,0,1,7.6,39.7l1.5-1.3a21,21,0,0,0,13.3,7.2Z" fill="#113559"/>
  <path d="M14.9,6.8,13.9,5a22.3,22.3,0,0,1,8.3-2.6l.2,1.9A22.1,22.1,0,0,0,14.9,6.8Z" fill="#113559"/>
  <path d="M41.1,12A20.8,20.8,0,0,0,27.4,4.3l.3-2a23.1,23.1,0,0,1,15,8.4Z" fill="#113559"/>
  <path d="M25,4l1.3.7L26,3.3l1-1L25.6,2,25,.8,24.4,2,23,2.3l1,1-.3,1.4ZM24.8.4Z" fill="#113559"/>
  <path d="M25,48.1l1.3.7L26,47.4l1-1-1.4-.2L25,44.9l-.6,1.3-1.4.2,1,1-.3,1.4Zm-.2-3.5Z" fill="#113559"/>
  <path d="M13.3,7.9l2.2,4.5,5.1.7a1.4,1.4,0,0,1,.7,2.4l-3.6,3.6.9,5a1.4,1.4,0,0,1-2.1,1.4L12,23.2,7.6,25.5a1.4,1.4,0,0,1-2.1-1.4l.9-5L2.8,15.5a1.4,1.4,0,0,1,.7-2.4l5-.7,2.3-4.5A1.4,1.4,0,0,1,13.3,7.9Z" fill="#306cf2"/>
  <path d="M36.6,33.1h-.7a26.5,26.5,0,0,1-9.4-2.2,30.6,30.6,0,0,0-7-2c-5.3-.8-10.9.2-16.8,2.7l-.8-1.8c6.3-2.7,12.3-3.7,17.9-2.9A38.8,38.8,0,0,1,27.2,29a24.2,24.2,0,0,0,8.7,2.1,25.4,25.4,0,0,0,12.3-3l.9,1.8A28,28,0,0,1,36.6,33.1Z" fill="#113559"/>
  <path d="M36.5,41.2h-.6A26.5,26.5,0,0,1,26.5,39a30.6,30.6,0,0,0-7-2A31.2,31.2,0,0,0,2.7,39.8l-.8-1.9c6.3-2.7,12.3-3.7,17.9-2.9a32.5,32.5,0,0,1,7.4,2.2,24.2,24.2,0,0,0,8.7,2,25.4,25.4,0,0,0,12.3-3l.9,1.8A28,28,0,0,1,36.5,41.2Z" fill="#113559"/>
  <path d="M36.6,25h-.7a26.5,26.5,0,0,1-9.4-2.2l-2.4-.9.6-1.9,2.5.9A24.2,24.2,0,0,0,35.9,23a25.4,25.4,0,0,0,12.3-3l.9,1.8A28,28,0,0,1,36.6,25Z" fill="#113559"/>
  <path d="M36.6,16.8h-.7a26.7,26.7,0,0,1-9.4-2.1l-2.4-.9.6-1.9,2.5.9a24.7,24.7,0,0,0,8.7,2,24.2,24.2,0,0,0,12.3-2.9l.9,1.8A27.2,27.2,0,0,1,36.6,16.8Z" fill="#113559"/>
</svg>
