<svg id="Layer_1" data-name="Layer 1" xmlns="http://www.w3.org/2000/svg" viewBox="0 0 50 50">
  <path d="M4.5,34.8A22.4,22.4,0,0,1,2.2,25a22.8,22.8,0,0,1,45.6,0,23.8,23.8,0,0,1-2.2,9.8l-1.9-.9A19.7,19.7,0,0,0,45.8,25,20.8,20.8,0,0,0,4.2,25a19.4,19.4,0,0,0,2.1,8.9Z" fill="#113559"/>
  <g>
    <path d="M25.9,33.9l1.6,3.3,3.6.5a1,1,0,0,1,.5,1.7L29,41.9l.7,3.6a1,1,0,0,1-1.5,1L25,44.9l-3.2,1.6a1,1,0,0,1-1.5-1l.7-3.6-2.6-2.5a1,1,0,0,1,.5-1.7l3.6-.5,1.6-3.3A1,1,0,0,1,25.9,33.9Z" fill="#306cf2"/>
    <path d="M42.5,45.7l-.8-.2-1.8-1-1.8,1a1.7,1.7,0,0,1-1.7-.1,1.7,1.7,0,0,1-.7-1.7l.3-2-1.4-1.4a1.7,1.7,0,0,1-.5-1.8,1.8,1.8,0,0,1,1.4-1.1l2-.3.9-1.8a1.8,1.8,0,0,1,1.5-1,1.8,1.8,0,0,1,1.6,1l.9,1.8,2,.3a1.6,1.6,0,0,1,1.3,1.1,1.7,1.7,0,0,1-.4,1.8l-1.4,1.4.3,2a1.9,1.9,0,0,1-.7,1.7A1.7,1.7,0,0,1,42.5,45.7Zm-2.6-3.4,2.2,1.1L41.7,41l1.8-1.7L41,38.9l-1.1-2.2-1.1,2.2-2.4.4L38.2,41l-.4,2.4Zm-.2-6.1Z" fill="#113559"/>
    <path d="M12.6,45.7l-.7-.2-1.8-1-1.8,1a1.9,1.9,0,0,1-1.8-.1,1.9,1.9,0,0,1-.7-1.7l.3-2L4.7,40.3a1.7,1.7,0,0,1-.4-1.8,1.6,1.6,0,0,1,1.3-1.1l2-.3.9-1.8a1.8,1.8,0,0,1,1.6-1,1.8,1.8,0,0,1,1.5,1l.9,1.8,2,.3a1.8,1.8,0,0,1,1.4,1.1,1.7,1.7,0,0,1-.5,1.8L14,41.7l.3,2a1.7,1.7,0,0,1-1.7,2Zm-2.5-3.4,2.1,1.1L11.8,41l1.8-1.7-2.4-.4-1.1-2.2L9,38.9l-2.5.4L8.3,41l-.4,2.4Zm-.3-6.1Z" fill="#113559"/>
  </g>
  <g id="Icon_feather-thumbs-up" data-name="Icon feather-thumbs-up">
    <path d="M31.2,31.1H17.5a2.9,2.9,0,0,1-2.9-2.9V21.5a2.9,2.9,0,0,1,2.9-2.9h2.2L23,11.3a2.1,2.1,0,0,1,2.5-1.1,4,4,0,0,1,2.6,3.7v2.8h4.8a2.8,2.8,0,0,1,1.9,1.2,2.7,2.7,0,0,1,.6,2.1L34,28.6A2.9,2.9,0,0,1,31.2,31.1Zm-9.8-2h9.7a1,1,0,0,0,1-.8l1.3-8.6a.7.7,0,0,0-.2-.6.7.7,0,0,0-.6-.4H26.1V13.9a1.9,1.9,0,0,0-1.3-1.8l-3.4,7.7Zm-3.9-8.5a.9.9,0,0,0-.9.9v6.7a.9.9,0,0,0,.9.9h1.9V20.6Z" fill="#113559"/>
  </g>
</svg>
