<svg id="Layer_1" data-name="Layer 1" xmlns="http://www.w3.org/2000/svg" viewBox="0 0 50 50">
  <path d="M30.4,36H26.2V32.6A8.7,8.7,0,0,1,35.1,24h3.4v.9c0,.1.1,1.9.1,2.8A7.9,7.9,0,0,1,30.4,36Zm-2.2-2h2.2a5.9,5.9,0,0,0,6.3-6.3c0-.4-.1-1.1-.1-1.7H35.1a6.5,6.5,0,0,0-6.9,6.6Z" fill="#113559"/>
  <path d="M19.6,36a7.9,7.9,0,0,1-8.3-8.3c0-.9.1-2.7.1-2.8V24h3.4a8.7,8.7,0,0,1,8.9,8.6V36H19.6ZM13.4,26a10.9,10.9,0,0,0-.1,1.7A5.9,5.9,0,0,0,19.6,34h2.2V32.6A6.6,6.6,0,0,0,14.9,26Z" fill="#113559"/>
  <circle cx="25" cy="17.4" r="6" fill="#306cf2"/>
  <path d="M26.2,47.8V35h2V45.5A20.6,20.6,0,0,0,45.8,25,20.8,20.8,0,0,0,4.2,25,20.6,20.6,0,0,0,21.8,45.5V35h2V47.8H22.7a22.8,22.8,0,1,1,4.6,0Z" fill="#113559"/>
</svg>
